<svg xmlns="http://www.w3.org/2000/svg" viewBox="0 0 256 256"><defs><style>.cls-1{fill:#e9345b;}</style></defs><g id="Слой_1" data-name="Слой 1"><path class="cls-1" d="M256,129.43A128.06,128.06,0,0,1,155.12,254.55a56,56,0,0,1-6.19-13.38,86.66,86.66,0,0,1-2.44-9.75c-.71-3.47-1.21-6.38-1.21-6.38-.49-3.31-1-6.62-1.31-9.93-.48-4.69,1.23-8.76,3.71-12.37,3.71,1,7.25,2.52,10.91,3,11.75,1.4,22.12-1.61,29-11.82,2.22-3.32,4.57-4.62,8.15-5.49,27-6.55,38-39.67,20.16-61-2.85-3.42-6.74-6-10.31-8.78-1.15-.89-1.41-1.44-.93-2.82,8-23-10.28-47.06-34.56-45.49a98.76,98.76,0,0,0-10,1.66c-6.25-13.43-16.82-21.36-32-21.38S102.35,58.45,96,72c-2.78-.54-5.47-1.21-8.22-1.57-13.27-1.78-27.72,5.74-33.87,17.51,0,0-3.9,7.45-4.19,14a2.47,2.47,0,0,0,0,.39v0c0,.47,0,1,0,1.41a.28.28,0,0,1,0,.09c.09,2.62.29,5.24.64,7.84a39.49,39.49,0,0,0,1.41,5.39c-3.54,3-7.33,5.56-10.23,8.86-10,11.39-12.74,24.59-7.49,38.82,5.12,13.9,15.5,22,30.13,24.55a3.49,3.49,0,0,1,2.26,1.39C72.3,201.79,81.92,206,93.92,206a30.74,30.74,0,0,0,15.65-4.52,17.09,17.09,0,0,1,2.92,11.58c-.8,9.47-2,18.88-5.07,28a60.34,60.34,0,0,1-6.4,13.53A128,128,0,1,1,256,129.43Z"/></g></svg>